<svg xmlns="http://www.w3.org/2000/svg" viewBox="0 0 800 450" role="img" aria-labelledby="title desc">
<title id="title">Zesty Chickpea Salad</title><desc id="desc">Illustration of the finished dish served in a bowl.</desc>
<defs><linearGradient id="g" x1="0" y1="0" x2="1" y2="1"><stop offset="0" stop-color="#fb923c"/><stop offset="1" stop-color="#22c55e"/></linearGradient><filter id="s" x="-20%" y="-20%" width="140%" height="140%"><feDropShadow dx="0" dy="18" stdDeviation="18" flood-opacity=".22"/></filter></defs>
<rect width="800" height="450" fill="url(#g)"/><circle cx="120" cy="90" r="70" fill="#fff" opacity=".16"/><circle cx="690" cy="90" r="95" fill="#fff" opacity=".13"/><circle cx="120" cy="365" r="110" fill="#000" opacity=".06"/>
<g filter="url(#s)"><ellipse cx="400" cy="310" rx="235" ry="95" fill="#f8fafc"/><ellipse cx="400" cy="285" rx="210" ry="78" fill="#dbeafe"/><g><circle cx="270" cy="280" r="18" fill="#d97706" stroke="#92400e" stroke-width="3"/><circle cx="330" cy="245" r="18" fill="#d97706" stroke="#92400e" stroke-width="3"/><circle cx="390" cy="270" r="18" fill="#d97706" stroke="#92400e" stroke-width="3"/><circle cx="445" cy="235" r="18" fill="#d97706" stroke="#92400e" stroke-width="3"/><circle cx="515" cy="285" r="18" fill="#d97706" stroke="#92400e" stroke-width="3"/><circle cx="570" cy="250" r="18" fill="#d97706" stroke="#92400e" stroke-width="3"/><circle cx="350" cy="320" r="18" fill="#d97706" stroke="#92400e" stroke-width="3"/><circle cx="470" cy="320" r="18" fill="#d97706" stroke="#92400e" stroke-width="3"/></g><path d="M205 256c95 44 284 43 390 0" fill="none" stroke="#16a34a" stroke-width="14" stroke-linecap="round"/><g fill="#ef4444"><circle cx="286" cy="244" r="22"/><circle cx="482" cy="250" r="19"/><circle cx="380" cy="225" r="17"/></g><g fill="#facc15"><circle cx="336" cy="274" r="17"/><circle cx="430" cy="283" r="15"/><circle cx="540" cy="275" r="16"/></g></g><path d="M140 385c150 28 370 28 520 0" stroke="#fff" stroke-width="3" opacity=".35" fill="none"/></svg>