<svg xmlns="http://www.w3.org/2000/svg" viewBox="0 0 800 450" role="img" aria-labelledby="title desc">
<title id="title">Jain Cabbage & Peas</title><desc id="desc">Illustration of the finished dish served in a bowl.</desc>
<defs><linearGradient id="g" x1="0" y1="0" x2="1" y2="1"><stop offset="0" stop-color="#84cc16"/><stop offset="1" stop-color="#16a34a"/></linearGradient><filter id="s" x="-20%" y="-20%" width="140%" height="140%"><feDropShadow dx="0" dy="18" stdDeviation="18" flood-opacity=".22"/></filter></defs>
<rect width="800" height="450" fill="url(#g)"/><circle cx="120" cy="90" r="70" fill="#fff" opacity=".16"/><circle cx="690" cy="90" r="95" fill="#fff" opacity=".13"/><circle cx="120" cy="365" r="110" fill="#000" opacity=".06"/>
<g filter="url(#s)"><ellipse cx="400" cy="318" rx="230" ry="88" fill="#fefce8"/><ellipse cx="400" cy="292" rx="200" ry="70" fill="#bef264"/><g fill="#ecfccb" stroke="#65a30d" stroke-width="3"><path d="M250 275c55-45 105-55 152-11-54 40-101 54-152 11z"/><path d="M390 250c70-30 125-18 160 37-72 18-123 7-160-37z"/><path d="M310 320c70-32 134-24 181 23-73 30-135 20-181-23z"/></g><g fill="#22c55e"><circle cx="300" cy="285" r="15"/><circle cx="365" cy="300" r="13"/><circle cx="470" cy="278" r="15"/><circle cx="520" cy="320" r="12"/></g></g><path d="M140 385c150 28 370 28 520 0" stroke="#fff" stroke-width="3" opacity=".35" fill="none"/></svg>