<svg xmlns="http://www.w3.org/2000/svg" viewBox="0 0 800 450" role="img" aria-labelledby="title desc">
<title id="title">Masala Tofu Scramble</title><desc id="desc">Illustration of the finished dish served in a bowl.</desc>
<defs><linearGradient id="g" x1="0" y1="0" x2="1" y2="1"><stop offset="0" stop-color="#f97316"/><stop offset="1" stop-color="#facc15"/></linearGradient><filter id="s" x="-20%" y="-20%" width="140%" height="140%"><feDropShadow dx="0" dy="18" stdDeviation="18" flood-opacity=".22"/></filter></defs>
<rect width="800" height="450" fill="url(#g)"/><circle cx="120" cy="90" r="70" fill="#fff" opacity=".16"/><circle cx="690" cy="90" r="95" fill="#fff" opacity=".13"/><circle cx="120" cy="365" r="110" fill="#000" opacity=".06"/>
<g filter="url(#s)"><ellipse cx="400" cy="318" rx="235" ry="92" fill="#fff7ed"/><ellipse cx="400" cy="292" rx="205" ry="72" fill="#fed7aa"/><g fill="#fef3c7" stroke="#f59e0b" stroke-width="3"><rect x="270" y="255" width="58" height="42" rx="12" transform="rotate(-10 299 276)"/><rect x="360" y="238" width="70" height="45" rx="13" transform="rotate(8 395 260)"/><rect x="455" y="270" width="62" height="44" rx="12" transform="rotate(-7 486 292)"/><rect x="330" y="302" width="75" height="40" rx="12" transform="rotate(5 367 322)"/></g><g fill="#dc2626"><circle cx="305" cy="236" r="13"/><circle cx="494" cy="246" r="15"/><circle cx="438" cy="326" r="12"/></g><path d="M260 333c85-35 206-33 290 0" stroke="#16a34a" stroke-width="10" stroke-linecap="round"/></g><path d="M140 385c150 28 370 28 520 0" stroke="#fff" stroke-width="3" opacity=".35" fill="none"/></svg>