<svg xmlns="http://www.w3.org/2000/svg" viewBox="0 0 800 450" role="img" aria-labelledby="title desc">
<title id="title">Peanut Butter Oats</title><desc id="desc">Illustration of the finished dish served in a bowl.</desc>
<defs><linearGradient id="g" x1="0" y1="0" x2="1" y2="1"><stop offset="0" stop-color="#d97706"/><stop offset="1" stop-color="#fde68a"/></linearGradient><filter id="s" x="-20%" y="-20%" width="140%" height="140%"><feDropShadow dx="0" dy="18" stdDeviation="18" flood-opacity=".22"/></filter></defs>
<rect width="800" height="450" fill="url(#g)"/><circle cx="120" cy="90" r="70" fill="#fff" opacity=".16"/><circle cx="690" cy="90" r="95" fill="#fff" opacity=".13"/><circle cx="120" cy="365" r="110" fill="#000" opacity=".06"/>
<g filter="url(#s)"><ellipse cx="400" cy="318" rx="230" ry="90" fill="#fef3c7"/><ellipse cx="400" cy="292" rx="200" ry="72" fill="#f5e6c8"/><path d="M315 252c70-40 140-28 175 18-45 58-137 58-175-18z" fill="#b45309" opacity=".85"/><g fill="#fde68a" stroke="#f59e0b" stroke-width="3"><circle cx="296" cy="305" r="28"/><circle cx="352" cy="330" r="27"/><circle cx="502" cy="306" r="29"/></g><g fill="#7c2d12"><circle cx="378" cy="276" r="8"/><circle cx="426" cy="300" r="7"/><circle cx="470" cy="260" r="6"/></g><path d="M280 232c70-26 172-26 238 2" stroke="#fff7ed" stroke-width="11" stroke-linecap="round"/></g><path d="M140 385c150 28 370 28 520 0" stroke="#fff" stroke-width="3" opacity=".35" fill="none"/></svg>