<svg xmlns="http://www.w3.org/2000/svg" viewBox="0 0 800 450" role="img" aria-labelledby="title desc">
<title id="title">Simple Dal Tadka</title><desc id="desc">Illustration of the finished dish served in a bowl.</desc>
<defs><linearGradient id="g" x1="0" y1="0" x2="1" y2="1"><stop offset="0" stop-color="#f59e0b"/><stop offset="1" stop-color="#facc15"/></linearGradient><filter id="s" x="-20%" y="-20%" width="140%" height="140%"><feDropShadow dx="0" dy="18" stdDeviation="18" flood-opacity=".22"/></filter></defs>
<rect width="800" height="450" fill="url(#g)"/><circle cx="120" cy="90" r="70" fill="#fff" opacity=".16"/><circle cx="690" cy="90" r="95" fill="#fff" opacity=".13"/><circle cx="120" cy="365" r="110" fill="#000" opacity=".06"/>
<g filter="url(#s)"><ellipse cx="400" cy="318" rx="235" ry="92" fill="#fffbeb"/><ellipse cx="400" cy="292" rx="205" ry="76" fill="#fcd34d"/><ellipse cx="400" cy="288" rx="170" ry="52" fill="#fbbf24"/><path d="M265 292c70 25 190 29 270 0" stroke="#92400e" stroke-width="8" stroke-linecap="round" opacity=".45"/><g fill="#dc2626"><path d="M333 250c25-5 39 3 47 20-25 5-42-1-47-20z"/><path d="M472 260c30-4 47 7 54 27-31 3-49-7-54-27z"/></g><g fill="#16a34a"><circle cx="310" cy="278" r="8"/><circle cx="390" cy="325" r="7"/><circle cx="510" cy="300" r="8"/></g></g><path d="M140 385c150 28 370 28 520 0" stroke="#fff" stroke-width="3" opacity=".35" fill="none"/></svg>